<svg width="300" height="300" viewBox="0 0 300 300" fill="none" xmlns="http://www.w3.org/2000/svg">
<circle cx="150" cy="150" r="150" fill="white"/>
<path d="M109.488 148.479L191.869 66.2C194.554 63.4279 197.764 61.2178 201.312 59.6984C204.86 58.179 208.675 57.3808 212.534 57.3501C216.394 57.3195 220.221 58.057 223.792 59.5198C227.364 60.9826 230.609 63.1415 233.338 65.8706C236.067 68.5997 238.226 71.8445 239.689 75.4161C241.151 78.9877 241.889 82.8147 241.858 86.6741C241.828 90.5335 241.029 94.3482 239.51 97.8961C237.991 101.444 235.78 104.654 233.008 107.34L150.729 189.823" stroke="url(#paint0_linear_25_29)" stroke-width="20" stroke-linecap="round" stroke-linejoin="round"/>
<path d="M89.1729 179.512C72.2271 179.512 58.5479 193.294 58.5479 210.342C58.5479 223.919 33.0271 225.858 38.1312 230.962C49.1562 242.192 63.55 251.583 78.9646 251.583C101.423 251.583 119.798 233.208 119.798 210.342C119.811 206.307 119.03 202.308 117.498 198.575C115.966 194.842 113.714 191.447 110.87 188.584C108.027 185.722 104.647 183.447 100.924 181.89C97.201 180.334 93.208 179.526 89.1729 179.512Z" stroke="url(#paint1_linear_25_29)" stroke-width="20" stroke-linecap="round" stroke-linejoin="round"/>
<path d="M190.512 148.479L108.131 66.2C105.446 63.4279 102.236 61.2178 98.6878 59.6984C95.1399 58.179 91.3251 57.3808 87.4657 57.3501C83.6063 57.3195 79.7793 58.057 76.2077 59.5198C72.6362 60.9826 69.3913 63.1415 66.6622 65.8706C63.9331 68.5997 61.7743 71.8445 60.3115 75.4161C58.8487 78.9877 58.1111 82.8147 58.1418 86.6741C58.1724 90.5335 58.9707 94.3482 60.49 97.8961C62.0094 101.444 64.2195 104.654 66.9916 107.34L149.271 189.823" stroke="url(#paint2_linear_25_29)" stroke-width="20" stroke-linecap="round" stroke-linejoin="round"/>
<path d="M210.827 179.512C227.773 179.512 241.452 193.294 241.452 210.342C241.452 223.919 266.973 225.858 261.869 230.962C250.844 242.192 236.45 251.583 221.035 251.583C198.577 251.583 180.202 233.208 180.202 210.342C180.189 206.307 180.97 202.308 182.502 198.575C184.034 194.842 186.286 191.447 189.13 188.584C191.973 185.722 195.353 183.447 199.076 181.89C202.799 180.334 206.792 179.526 210.827 179.512Z" stroke="url(#paint3_linear_25_29)" stroke-width="20" stroke-linecap="round" stroke-linejoin="round"/>
<defs>
<linearGradient id="paint0_linear_25_29" x1="175.673" y1="57.3492" x2="175.673" y2="189.823" gradientUnits="userSpaceOnUse">
<stop stop-color="#D90077"/>
<stop offset="1" stop-color="#9E00FF"/>
</linearGradient>
<linearGradient id="paint1_linear_25_29" x1="78.6272" y1="179.512" x2="78.6272" y2="251.583" gradientUnits="userSpaceOnUse">
<stop stop-color="#D90077"/>
<stop offset="1" stop-color="#9E00FF"/>
</linearGradient>
<linearGradient id="paint2_linear_25_29" x1="124.327" y1="57.3492" x2="124.327" y2="189.823" gradientUnits="userSpaceOnUse">
<stop stop-color="#D90077"/>
<stop offset="1" stop-color="#9E00FF"/>
</linearGradient>
<linearGradient id="paint3_linear_25_29" x1="221.373" y1="179.512" x2="221.373" y2="251.583" gradientUnits="userSpaceOnUse">
<stop stop-color="#D90077"/>
<stop offset="1" stop-color="#9E00FF"/>
</linearGradient>
</defs>
</svg>
